<?xml version="1.0" standalone="no"?>
<!DOCTYPE svg PUBLIC "-//W3C//DTD SVG 20010904//EN"
 "http://www.w3.org/TR/2001/REC-SVG-20010904/DTD/svg10.dtd">
<svg version="1.0" xmlns="http://www.w3.org/2000/svg"
 width="512.000000pt" height="512.000000pt" viewBox="0 0 512.000000 512.000000"
 preserveAspectRatio="xMidYMid meet">
<metadata>
Created by potrace 1.14, written by Peter Selinger 2001-2017
</metadata>
<g transform="translate(0.000000,512.000000) scale(0.100000,-0.100000)"
fill="#000000" stroke="none">
<path d="M2450 5099 c-214 -55 -486 -166 -556 -225 -45 -39 -142 -124 -195
-172 -74 -67 -114 -126 -180 -267 -80 -171 -113 -267 -135 -395 -2 -14 -6 -34
-9 -45 -2 -11 -7 -42 -11 -70 -3 -27 -8 -61 -10 -75 -17 -106 -12 -339 9 -435
3 -11 8 -42 11 -70 18 -137 54 -315 96 -480 21 -83 40 -164 43 -180 3 -17 16
-86 28 -155 36 -203 26 -269 -61 -372 -87 -105 -80 -102 -269 -103 -155 0
-168 -1 -197 -22 -44 -32 -94 -90 -111 -131 -28 -68 -16 -219 24 -298 16 -31
16 -33 -19 -80 -55 -75 -68 -108 -69 -171 -3 -159 31 -228 139 -283 23 -12 42
-24 42 -27 0 -3 -29 -36 -64 -73 -284 -302 -96 -719 329 -731 168 -5 282 32
420 136 152 114 304 302 331 410 12 47 43 127 44 115 1 -8 3 -22 5 -30 1 -8 6
-46 9 -83 4 -37 9 -78 12 -90 2 -12 7 -35 9 -52 37 -213 138 -406 272 -524 93
-81 153 -107 274 -117 221 -18 407 219 407 518 0 52 -5 118 -13 148 -38 160
-94 353 -146 505 -50 141 -57 183 -58 297 0 97 4 122 24 173 29 71 51 94 96
101 26 4 41 0 62 -16 40 -32 55 -67 73 -172 21 -126 22 -133 29 -213 3 -38 11
-101 16 -140 6 -38 12 -88 15 -110 3 -22 10 -65 15 -96 5 -31 12 -79 15 -105
8 -76 19 -123 56 -229 38 -110 76 -171 162 -263 119 -127 254 -159 421 -102
153 53 235 173 261 385 10 75 5 140 -17 250 -29 138 -48 184 -140 337 -43 72
-79 134 -79 136 0 3 -25 44 -55 92 -60 95 -115 209 -115 238 0 28 50 70 97 80
92 21 165 -46 207 -191 43 -146 95 -284 147 -394 85 -177 190 -257 337 -252
144 5 253 79 347 235 60 100 80 181 79 324 -1 148 -9 181 -67 280 l-44 74 26
20 c46 36 58 50 99 114 60 93 77 151 76 257 0 83 -3 95 -34 153 -81 151 -201
187 -432 127 -46 -12 -67 -16 -119 -21 -102 -11 -248 42 -334 120 -39 36 -48
52 -69 126 -23 81 -37 164 -38 220 -1 34 11 179 17 210 10 56 14 81 20 166 4
49 9 92 11 95 1 3 6 37 9 75 5 65 10 104 19 149 5 24 19 218 19 260 0 63 -14
243 -24 295 -50 263 -132 432 -282 579 -138 136 -265 187 -617 251 -90 16
-144 20 -385 24 -205 4 -238 3 -305 -15z"/>
<path d="M618 4515 c-71 -18 -113 -57 -154 -143 -20 -41 -24 -63 -20 -102 9
-91 81 -190 160 -220 96 -36 232 25 277 124 29 64 26 170 -7 232 -36 68 -50
81 -103 98 -69 22 -101 25 -153 11z"/>
<path d="M4510 3955 c-164 -29 -241 -109 -274 -284 -22 -117 -10 -186 51 -291
40 -69 84 -111 151 -145 144 -72 301 -53 407 50 153 149 145 415 -17 575 -51
50 -116 85 -178 95 -67 12 -70 12 -140 0z"/>
<path d="M460 3354 c-82 -21 -114 -41 -183 -111 -105 -106 -148 -199 -153
-324 -6 -162 65 -289 210 -374 91 -53 223 -64 375 -31 96 21 133 39 175 87
102 112 131 286 77 460 -33 106 -137 225 -243 278 -50 25 -68 29 -135 28 -43
-1 -98 -6 -123 -13z"/>
</g>
</svg>
